<svg xmlns="http://www.w3.org/2000/svg" width="281" height="137.488" viewBox="0 0 281 137.488">
  <g id="그룹_204455" data-name="그룹 204455" transform="translate(0 -0.779)">
    <g id="그룹_204459" data-name="그룹 204459" transform="translate(0 0)">
      <path id="패스_56468" data-name="패스 56468" d="M58.366,53.067H1.868S-1.191,49.911.521,45.911c.993-2.32,6.012-4.008,8.468-.677,0,0,.475-6.954,6.646-8.343s8.784,2.788,8.784,2.788.238-11.3,10.445-12.485,15.43,7.359,13.769,14.954c0,0,6.409-2.374,9.733,1.9s0,9.022,0,9.022" transform="translate(0 -14.274)" fill="#fff"/>
      <path id="패스_56469" data-name="패스 56469" d="M236.4,154l-187.621-.124C11.367,141.568,22.332,81.261,69.095,90.936c-6.773-21.608,20.317-39.345,39.989-23.543-1.935-20.317,21.159-56.742,68.048-49.987,38.056,5.483,52.891,39.667,48.376,68.047C265.5,81.261,280.655,141.89,236.4,154" transform="translate(5.783 -15.804)" fill="rgba(255,255,255,0.52)"/>
      <path id="패스_56470" data-name="패스 56470" d="M202.864,94.668l33.326-.344s1.437-4.648-2.585-5.8c-2.885-.823-4.885,2.01-4.885,2.01s-.373-6.568-5.746-7.466c-6.176-1.032-8.379,2.64-9.933,6.444a5.285,5.285,0,0,0-5.58-2.711c-4.521.645-5.459,5.169-4.6,7.864" transform="translate(44.56 -1.997)" fill="#fff"/>
      <path id="패스_56471" data-name="패스 56471" d="M205.832,72.139c-7.582-17.6-27.332-9.729-36.667-17.045-6.637-5.2-7.316-13.119-15.137-17.914-10.682-6.546-25.04,2.359-22.455,14.128a34.706,34.706,0,0,0,3,8.076c-3.05,5.546-4.714,15.8,1.941,21.349C134.992,95.661,151.206,104.7,177,107.074c24.121,2.218,35.9-18.536,28.835-34.935" transform="translate(28.874 -12.54)" fill="#001240"/>
      <path id="패스_56472" data-name="패스 56472" d="M115.074,114.2s-3.126-8.595-6.25-16.667c-3.646,1.3-5.99,2.268-5.99,2.268A360.986,360.986,0,0,1,92.155,64.98a72.121,72.121,0,0,0-2.344-16.667c-1.046-3.919-2.131-6.6-3.127-6.108-.888.442.355,8.473.355,8.473-1.44-.906-2.3-.678-2.523.916-.961-.66-1.621-.487-1.992.992-1.46-1.43-2.35.416-1.568,4.582a23.916,23.916,0,0,0,3.385,9.116s1.569,24.058,4.427,36.46c2.008,8.713,4.724,16.668,10.417,16.668,3.126,0,11.719-3.126,15.886-5.209" transform="translate(17.744 -10.96)" fill="#fcddcd"/>
      <path id="패스_56474" data-name="패스 56474" d="M145.513,70.409c-8.855,1.563-25,9.375-44.58,19.533,0,0,3.026,7.753,8.38,21.564l17.449-6.244s1.53,28.608.521,37.748H187.1l3.727-24.942,5.208-1.042a134.1,134.1,0,0,0-15.1-30.991c-9.97-14.826-21.877-14.325-21.877-14.325Z" transform="translate(22.202 -4.743)" fill="#b3dde2"/>
      <path id="패스_56475" data-name="패스 56475" d="M189.413,109.261l-16.928,2.6s1.055,5.567,2.084,9.635c-18.751-.26-35.071,4.3-41.929,3.126-16.668-2.864-25.08,1.759-25.241,2.448s.384.983,2.326.262a14.333,14.333,0,0,1,3.055-.844s-3.769,1.21-4.374,2.7c-1.351,3.313.349,4.088,2.212.852.841-1.458,3.525-1.832,4.354-1.956,0,0-3.457,1.724-4.034,3.241-.8,2.1,1.071,1.793,2.356.447a20.965,20.965,0,0,1,2.7-1.83s-2.046,1.493-2.377,2.762.651,1.348,2.44-.371c.836-.8,1.649-.418,2.83-.8a12.728,12.728,0,0,1,6.189.734,17.9,17.9,0,0,0,7.4,1.53c3.478.056,24.551.586,50.942.586,7.9,0,10.677-2.213,5.99-25.131" transform="translate(23.618 3.803)" fill="#fcddcd"/>
      <path id="패스_56476" data-name="패스 56476" d="M137.452,63.305l-.022.626L136.569,74.8c2.475,6.424,13.547,6.036,15.976.7l.134-22.622Z" transform="translate(30.041 -8.6)" fill="#fcddcd"/>
      <path id="패스_56477" data-name="패스 56477" d="M147.008,60.159s-3.71,6.48-10.09,6.779l.356-4.614Z" transform="translate(30.118 -6.998)" fill="#d18e8e"/>
      <path id="패스_56478" data-name="패스 56478" d="M153.336,51.078a11.882,11.882,0,0,1-9.709-9.694,15.778,15.778,0,0,1-10.815,5.246c-1.142,6.091-.839,13.694,1.928,17.288,4.613,5.994,15.821,4.015,18.269-7.483,0,0,2.47,1.238,3.725-1.92.8-2.007-.874-4.915-3.4-3.437" transform="translate(29.077 -11.128)" fill="#fcddcd"/>
      <path id="패스_56481" data-name="패스 56481" d="M135.575,51.073a.759.759,0,1,1-.834-.675.759.759,0,0,1,.834.675" transform="translate(29.489 -9.146)"/>
      <path id="패스_56482" data-name="패스 56482" d="M142.287,51.22a.759.759,0,1,1-.834-.675.76.76,0,0,1,.834.675" transform="translate(30.966 -9.113)"/>
      <path id="패스_56483" data-name="패스 56483" d="M136.615,55.72a1.613,1.613,0,0,0,.7,1.418,2.887,2.887,0,0,0,1.541.517,2.7,2.7,0,0,0,1.553-.584,1.549,1.549,0,0,0,.556-1.494l-.084-.033a2.073,2.073,0,0,1-2.032,1.216,2.369,2.369,0,0,1-2.152-1.081Z" transform="translate(30.049 -8.013)" fill="#d18e8e"/>
      <path id="패스_56484" data-name="패스 56484" d="M137.448,51.38a7.613,7.613,0,0,1-.972,2.791l-.035.065.055.039,1.607,1.143.054-.072a3.465,3.465,0,0,0-.514-.965,3.286,3.286,0,0,0-.666-.759l.188.976a3.506,3.506,0,0,0,.445-.722c.088-.262.163-.527.226-.8a2.741,2.741,0,0,0,.007-.848,2,2,0,0,0-.305-.844Z" transform="translate(30.012 -8.929)" fill="#d18e8e"/>
      <path id="패스_56487" data-name="패스 56487" d="M136.5,130.8H58.574L57.5,125.923h79a2.438,2.438,0,1,1,0,4.876" transform="translate(12.648 7.468)" fill="#7780ac"/>
      <path id="패스_56488" data-name="패스 56488" d="M120,137.139H61.986a4.3,4.3,0,0,1-4.043-2.834L46.138,101.772c-1.139-2.428-.409-4.119,1.354-4.67h55.656c.991,0,2.4,1.185,2.977,2.253Z" transform="translate(10.028 1.128)" fill="#67749b"/>
      <path id="패스_56489" data-name="패스 56489" d="M76.47,112.523a2.945,2.945,0,1,1-3.539-2.436,3.04,3.04,0,0,1,3.539,2.436" transform="translate(15.54 3.97)" fill="#fff"/>
      <path id="패스_56490" data-name="패스 56490" d="M220.973,122.693H168.521a4.409,4.409,0,1,0,0,8.817h30.363l22.089-.029Z" transform="translate(36.077 6.757)" fill="#cf78f3"/>
      <path id="패스_56491" data-name="패스 56491" d="M192.792,123.623a3.284,3.284,0,0,0,0,6.559h22.535v-6.559Z" transform="translate(41.724 6.962)" fill="#fff"/>
      <line id="선_5001" data-name="선 5001" x2="13.116" transform="translate(243.935 135.648)" fill="none" stroke="#ffdfe1" stroke-miterlimit="10" stroke-width="0.4"/>
      <line id="선_5002" data-name="선 5002" x2="14.876" transform="translate(242.173 134.077)" fill="none" stroke="#ffdfe1" stroke-miterlimit="10" stroke-width="0.4"/>
      <line id="선_5003" data-name="선 5003" x1="8.273" transform="translate(248.778 132.443)" fill="none" stroke="#ffdfe1" stroke-miterlimit="10" stroke-width="0.4"/>
      <path id="패스_56492" data-name="패스 56492" d="M214.312,117.333H175.246a3.284,3.284,0,1,0,0,6.567H197.86l16.451-.022Z" transform="translate(37.81 5.578)" fill="#fbbd9e"/>
      <path id="패스_56493" data-name="패스 56493" d="M196.513,118.09a2.368,2.368,0,0,0,0,4.73H209.39v-4.73Z" transform="translate(42.733 5.745)" fill="#fff"/>
      <line id="선_5004" data-name="선 5004" x2="9.77" transform="translate(242.352 127.446)" fill="none" stroke="#ffdfe1" stroke-miterlimit="10" stroke-width="0.4"/>
      <line id="선_5005" data-name="선 5005" x2="11.081" transform="translate(241.041 126.277)" fill="none" stroke="#ffdfe1" stroke-miterlimit="10" stroke-width="0.4"/>
      <line id="선_5006" data-name="선 5006" x1="6.162" transform="translate(245.96 125.06)" fill="none" stroke="#ffdfe1" stroke-miterlimit="10" stroke-width="0.4"/>
    </g>
  </g>
</svg>
