<svg width="360" height="360" viewBox="0 0 360 360" fill="none" xmlns="http://www.w3.org/2000/svg">
<g clip-path="url(#clip0_1928_12651)">
<path d="M46.6595 263.061H132.417V302.279H46.6595V263.061Z" fill="white" stroke="#2E186A" stroke-width="1.80839" stroke-linecap="round" stroke-linejoin="round"/>
<path d="M68.098 262.016L68.1161 286.854L74.3762 276.658L80.6362 286.854L86.2362 277.737L91.351 286.07V262.082L68.098 262.016Z" fill="#FEBA91"/>
<path d="M78.3365 135.682L76.1996 127.746" stroke="#2E186A" stroke-width="1.80839" stroke-linecap="round" stroke-linejoin="round"/>
<path d="M119.924 200.748C120.451 195.082 122.094 184.575 108.492 178.053C94.8894 171.531 86.5919 165.048 82.9661 150.535" stroke="#2E186A" stroke-width="1.80839" stroke-linecap="round" stroke-linejoin="round"/>
<path d="M85.479 148.43L82.0888 135.831C81.7372 134.524 80.3928 133.75 79.0859 134.102L77.3426 134.571C76.0357 134.922 75.2614 136.267 75.613 137.574L79.0032 150.173C79.3548 151.48 80.6993 152.254 82.0061 151.902L83.7495 151.433C85.0563 151.082 85.8306 149.737 85.479 148.43Z" fill="#49BEFF"/>
<path d="M54.4356 174.313L46.2195 174.307" stroke="#2E186A" stroke-width="1.80839" stroke-linecap="round" stroke-linejoin="round"/>
<path d="M68.6013 170.738H55.5538C54.2005 170.738 53.1034 171.835 53.1034 173.189V174.994C53.1034 176.347 54.2005 177.444 55.5538 177.444H68.6013C69.9546 177.444 71.0517 176.347 71.0517 174.994V173.189C71.0517 171.835 69.9546 170.738 68.6013 170.738Z" fill="#49BEFF"/>
<path d="M69.1439 173.776C69.1439 173.776 99.3411 172.076 113.45 197.439" stroke="#2E186A" stroke-width="1.80839" stroke-linecap="round" stroke-linejoin="round"/>
<path d="M247.717 230.643C255.821 230.643 261.581 232.535 261.967 250.773C262.353 269.011 261.545 285.497 277.459 285.286C292.164 285.09 288.897 279.141 295.693 279.403" stroke="#2E186A" stroke-width="1.80839" stroke-linecap="round" stroke-linejoin="round"/>
<path d="M311.252 272.082H294.259C293.175 272.082 292.297 272.96 292.297 274.044V284.629C292.297 285.713 293.175 286.591 294.259 286.591H311.252C312.335 286.591 313.214 285.713 313.214 284.629V274.044C313.214 272.96 312.335 272.082 311.252 272.082Z" fill="#49BEFF"/>
<path d="M306.022 272.061L306.001 286.615" stroke="#2E186A" stroke-width="1.80839" stroke-linejoin="round"/>
<path d="M309.769 275.961H320.969M309.769 281.386H320.969" stroke="#2E186A" stroke-width="1.80839" stroke-linecap="round" stroke-linejoin="round"/>
<path d="M254.122 66.3633V73.7898M257.835 70.0765H250.411" stroke="#2E186A" stroke-width="1.80839" stroke-linecap="round" stroke-linejoin="round"/>
<path d="M201.31 93.5551V100.979M205.021 97.2683H197.597M158.693 57.4746V64.8981M162.403 61.1878H154.979M113.983 117.872V125.295M117.696 121.582H110.27M62.7392 89.1094V96.5359M66.4495 92.8227H59.026M54.6346 199.183V206.607M58.3448 202.897H50.9214M39.7304 137.74V145.167M43.4437 141.453H36.0172M287.719 159.049V166.476M291.432 162.762H284.008M301.447 97.4763V104.903M305.157 101.19H297.734M328.899 206.504V213.928M332.612 210.215H325.185" stroke="#2E186A" stroke-width="1.80839" stroke-linecap="round" stroke-linejoin="round"/>
<path d="M290.784 206.212L257.244 175.49H205.03L205.542 176.129H114.245L80.7749 206.851V214.781H114.23V303.283H257.784V214.127H290.784V206.212Z" fill="#5D87FF"/>
<path d="M245.128 256.461H237.807V287.05H229.44V255.937H222.643L234.148 223.777L245.128 256.461Z" fill="white"/>
<path d="M205.623 183.318V300.451M205.361 183.282L174.727 214.353M201.964 179.529L174.468 207.418M114.55 214.694H174.513V207.556H81.6188M257.569 214.067H225.401V206.929H288.071M205.711 183.107L225.003 213.973M213.176 187.754L225.449 207.068" stroke="#2E186A" stroke-width="1.80839" stroke-linecap="round" stroke-linejoin="round"/>
<path d="M240.396 123.902C234.368 122.248 230.025 123.269 230.025 123.269C226.191 114.731 214.051 106.798 214.051 106.798C205.512 111.244 209.433 129.373 209.433 129.373L204.553 131.202C198.453 123.794 189.911 115.689 187.449 115.514C181.762 115.111 181.566 140.615 181.566 140.615C167.728 148.846 153.575 157.448 142.562 164.859C142.969 159.564 145.491 152.722 151.64 144.364C162.882 129.068 165.366 108.838 154.994 96.6047C140.44 79.4249 127.106 85.2721 119.176 92.8583C111.156 100.526 109.935 114.035 122.492 105.059C135.123 96.0169 141.317 100.701 147.242 111.858C153.168 123.016 134.867 140.19 126.328 154.127C121.539 161.945 119.179 169.67 119.282 176.129H177.211C177.093 176.261 176.978 176.391 176.876 176.521L179.748 176.129H198.191C205.554 183.215 222.815 196.419 226.67 188.809C228.614 184.978 229.464 180.776 228.656 176.789C230.365 180.053 235.712 189.276 240.36 186.693C244.386 184.456 247.593 178.193 246.813 171.623C249.808 168.859 252.114 165.917 253.558 162.831C265.322 141.661 245.746 125.376 240.396 123.902Z" fill="#49BEFF"/>
<path d="M246.409 136.519C253.6 125.536 270.596 123.969 270.596 123.969M249.417 145.407C251.117 142.007 263.667 134.949 273.079 137.694" stroke="#2E186A" stroke-width="1.80839" stroke-linecap="round" stroke-linejoin="round"/>
<path d="M208.243 154.688C203.098 153.006 192.811 151.852 184.938 159.411M207.803 150.158C202.835 145.845 189.631 144.666 180.481 151.595" stroke="#2E186A" stroke-width="1.80839" stroke-linecap="round" stroke-linejoin="round"/>
<path d="M190.198 117.693C190.198 117.693 183.66 133.249 190.852 138.49" stroke="#2E186A" stroke-width="1.80839" stroke-linecap="round" stroke-linejoin="round"/>
<path d="M215.428 108.936C215.428 108.936 212.028 120.69 215.166 128.674" stroke="#2E186A" stroke-width="1.80839" stroke-linecap="round" stroke-linejoin="round"/>
<path d="M216.733 147.931C217.961 147.509 218.416 145.596 217.75 143.658C217.084 141.72 215.549 140.491 214.321 140.914C213.093 141.336 212.638 143.249 213.304 145.186C213.97 147.124 215.505 148.353 216.733 147.931Z" fill="#2E186A"/>
<path d="M234.379 142.31C235.607 141.888 236.062 139.975 235.396 138.037C234.73 136.099 233.195 134.87 231.967 135.292C230.739 135.714 230.284 137.628 230.95 139.565C231.616 141.503 233.151 142.732 234.379 142.31Z" fill="#2E186A"/>
<path d="M232.795 145.946L230.624 149.521C230.465 149.769 230.215 149.946 229.927 150.013C229.64 150.08 229.337 150.032 229.084 149.879L225.724 147.875C225.544 147.774 225.4 147.621 225.308 147.437C225.217 147.252 225.183 147.045 225.211 146.841C225.239 146.637 225.327 146.446 225.465 146.293C225.603 146.14 225.783 146.032 225.983 145.982L231.514 144.412C232.469 144.138 233.283 145.123 232.795 145.946Z" fill="#2E186A"/>
<path d="M227.002 153.281C230.465 157.672 230.353 152.202 229.805 149.32C230.92 151.825 233.87 155.457 234.326 151.43" stroke="#2E186A" stroke-width="1.80839" stroke-linecap="round" stroke-linejoin="round"/>
<path d="M222.683 190.966C222.333 190.008 216.866 179.133 211.461 175.037M219.219 171.812C219.479 171.9 225.85 182.361 226.103 189.505" stroke="#2E186A" stroke-width="1.80839" stroke-linecap="round" stroke-linejoin="round"/>
<path d="M176.864 176.526C181.831 170.381 204.593 158.485 217.251 164.238C229.91 169.992 230.977 180.318 226.664 188.814" stroke="#2E186A" stroke-width="1.80839" stroke-linecap="round" stroke-linejoin="round"/>
<path d="M232.487 170.498C232.487 170.498 238.37 181.674 238.5 187.099M239.808 168.023C239.808 168.023 244.121 181.029 241.574 186.062" stroke="#2E186A" stroke-width="1.80839" stroke-linecap="round" stroke-linejoin="round"/>
<path d="M222.086 166.15C223.674 163.597 237.635 155.254 243.82 163.934C244.944 165.511 246.171 168.582 246.671 170.246" stroke="#2E186A" stroke-width="1.80839" stroke-linecap="round" stroke-linejoin="round"/>
<path d="M0.904175 302.523H359.096" stroke="#2E186A" stroke-width="1.80839" stroke-linecap="round" stroke-linejoin="round"/>
</g>
<defs>
<clipPath id="clip0_1928_12651">
<rect width="360" height="360" fill="white"/>
</clipPath>
</defs>
</svg>
